# xmcd
#
# Track frame offsets:
#	150
#	33818
#	52690
#	82974
#	104757
#	134483
#	161178
#	183977
#	205593
#	228600
#	242624
#
# Disc length: 3503 seconds
#
# Revision: 3
# Processed by: cddbd v1.5.2PL0 Copyright (c) Steve Scherf et al.
# Submitted via: audiograbber 1.83.01
#
DISCID=8a0dad0b
DTITLE=Jimmy Dawkins - West Side Guitar Hero
DYEAR=2002
DGENRE=Blues
TTITLE0=Alley Mae
TTITLE1=Jammin' Gitar
TTITLE2=Go On Baby
TTITLE3=I'm What U Need
TTITLE4=Sweet Li'l Mama
TTITLE5=Everybody's Jumping
TTITLE6=Dollar Head Woman
TTITLE7=Wess Cide Rock
TTITLE8=Shee Leff Me
TTITLE9=So Wurrid
TTITLE10=U Made Me Luv U
EXTD=
EXTT0=
EXTT1=
EXTT2=
EXTT3=
EXTT4=
EXTT5=
EXTT6=
EXTT7=
EXTT8=
EXTT9=
EXTT10=
PLAYORDER=
